<?xml version="1.0" encoding="UTF-8" standalone="no"?>
<!-- Created with Inkscape (http://www.inkscape.org/) -->

<svg
   xmlns:dc="http://purl.org/dc/elements/1.1/"
   xmlns:cc="http://creativecommons.org/ns#"
   xmlns:rdf="http://www.w3.org/1999/02/22-rdf-syntax-ns#"
   xmlns:svg="http://www.w3.org/2000/svg"
   xmlns="http://www.w3.org/2000/svg"
   xmlns:sodipodi="http://sodipodi.sourceforge.net/DTD/sodipodi-0.dtd"
   xmlns:inkscape="http://www.inkscape.org/namespaces/inkscape"
   width="297mm"
   height="210mm"
   id="svg2985"
   version="1.1"
   inkscape:version="0.48.3.1 r9886"
   sodipodi:docname="proj1_storyboard.svg">
  <defs
     id="defs2987">
    <marker
       inkscape:stockid="Arrow1Lstart"
       orient="auto"
       refY="0.0"
       refX="0.0"
       id="Arrow1Lstart"
       style="overflow:visible">
      <path
         id="path4182"
         d="M 0.0,0.0 L 5.0,-5.0 L -12.5,0.0 L 5.0,5.0 L 0.0,0.0 z "
         style="fill-rule:evenodd;stroke:#000000;stroke-width:1.0pt"
         transform="scale(0.8) translate(12.5,0)" />
    </marker>
    <marker
       inkscape:stockid="Arrow1Lend"
       orient="auto"
       refY="0.0"
       refX="0.0"
       id="Arrow1Lend"
       style="overflow:visible;">
      <path
         id="path4185"
         d="M 0.0,0.0 L 5.0,-5.0 L -12.5,0.0 L 5.0,5.0 L 0.0,0.0 z "
         style="fill-rule:evenodd;stroke:#000000;stroke-width:1.0pt;"
         transform="scale(0.8) rotate(180) translate(12.5,0)" />
    </marker>
  </defs>
  <sodipodi:namedview
     inkscape:document-units="mm"
     pagecolor="#ffffff"
     bordercolor="#666666"
     borderopacity="1.0"
     inkscape:pageopacity="0.0"
     inkscape:pageshadow="2"
     inkscape:zoom="0.86831672"
     inkscape:cx="355.80076"
     inkscape:cy="428.60262"
     inkscape:current-layer="layer1"
     id="namedview2989"
     showgrid="false"
     inkscape:window-width="1680"
     inkscape:window-height="956"
     inkscape:window-x="0"
     inkscape:window-y="31"
     inkscape:window-maximized="1" />
  <metadata
     id="metadata2991">
    <rdf:RDF>
      <cc:Work
         rdf:about="">
        <dc:format>image/svg+xml</dc:format>
        <dc:type
           rdf:resource="http://purl.org/dc/dcmitype/StillImage" />
        <dc:title />
      </cc:Work>
    </rdf:RDF>
  </metadata>
  <g
     inkscape:label="Layer 1"
     inkscape:groupmode="layer"
     id="layer1">
    <rect
       style="fill:#ffffff;fill-opacity:1;fill-rule:evenodd;stroke:#000000;stroke-width:0.99921262;stroke-linecap:butt;stroke-linejoin:miter;stroke-miterlimit:4;stroke-opacity:1;stroke-dasharray:none"
       id="rect2996"
       width="170.44472"
       height="224.57243"
       x="62.189289"
       y="18.552771" />
    <rect
       style="fill:#ffffff;fill-opacity:1;fill-rule:evenodd;stroke:#000000;stroke-width:0.99921262;stroke-linecap:butt;stroke-linejoin:miter;stroke-miterlimit:4;stroke-opacity:1;stroke-dasharray:none"
       id="rect2996-3"
       width="170.44472"
       height="224.57243"
       x="270.63858"
       y="19.128597" />
    <rect
       style="fill:#ffffff;fill-opacity:1;fill-rule:evenodd;stroke:#000000;stroke-width:0.99921262;stroke-linecap:butt;stroke-linejoin:miter;stroke-miterlimit:4;stroke-opacity:1;stroke-dasharray:none"
       id="rect2996-0"
       width="170.44472"
       height="224.57243"
       x="64.492584"
       y="506.27802" />
    <rect
       style="fill:#ffffff;fill-opacity:1;fill-rule:evenodd;stroke:#000000;stroke-width:0.99921262;stroke-linecap:butt;stroke-linejoin:miter;stroke-miterlimit:4;stroke-opacity:1;stroke-dasharray:none"
       id="rect2996-2"
       width="170.44472"
       height="224.57243"
       x="262.577"
       y="267.88577" />
    <rect
       style="fill:#ffffff;fill-opacity:1;fill-rule:evenodd;stroke:#000000;stroke-width:0.99921262;stroke-linecap:butt;stroke-linejoin:miter;stroke-miterlimit:4;stroke-opacity:1;stroke-dasharray:none"
       id="rect2996-4"
       width="170.44472"
       height="224.57243"
       x="62.189285"
       y="265.58243" />
    <rect
       style="fill:#ffffff;fill-opacity:1;fill-rule:evenodd;stroke:#000000;stroke-width:0.99921262;stroke-linecap:butt;stroke-linejoin:miter;stroke-miterlimit:4;stroke-opacity:1;stroke-dasharray:none"
       id="rect2996-32"
       width="170.44472"
       height="224.57243"
       x="466.41971"
       y="19.128595" />
    <rect
       style="fill:#ffffff;fill-opacity:1;fill-rule:evenodd;stroke:#000000;stroke-width:0.99921262;stroke-linecap:butt;stroke-linejoin:miter;stroke-miterlimit:4;stroke-opacity:1;stroke-dasharray:none"
       id="rect2996-8"
       width="170.44472"
       height="224.57243"
       x="457.20642"
       y="265.58243" />
    <rect
       style="fill:#ffffff;fill-opacity:1;fill-rule:evenodd;stroke:#000000;stroke-width:0.99921262;stroke-linecap:butt;stroke-linejoin:miter;stroke-miterlimit:4;stroke-opacity:1;stroke-dasharray:none"
       id="rect2996-7"
       width="170.44472"
       height="224.57243"
       x="263.72864"
       y="506.27805" />
    <rect
       style="fill:#ffffff;fill-opacity:1;fill-rule:evenodd;stroke:#000000;stroke-width:0.99921262;stroke-linecap:butt;stroke-linejoin:miter;stroke-miterlimit:4;stroke-opacity:1;stroke-dasharray:none"
       id="rect2996-43"
       width="170.44472"
       height="224.57243"
       x="458.35809"
       y="503.97473" />
    <rect
       style="fill:#ffffff;fill-opacity:1;fill-rule:evenodd;stroke:#000000;stroke-width:0.99921262;stroke-linecap:butt;stroke-linejoin:miter;stroke-miterlimit:4;stroke-opacity:1;stroke-dasharray:none"
       id="rect2996-48"
       width="170.44472"
       height="224.57243"
       x="650.6842"
       y="505.12637" />
    <rect
       style="fill:#ffffff;fill-opacity:1;fill-rule:evenodd;stroke:#000000;stroke-width:0.99921262;stroke-linecap:butt;stroke-linejoin:miter;stroke-miterlimit:4;stroke-opacity:1;stroke-dasharray:none"
       id="rect2996-41"
       width="170.44472"
       height="224.57243"
       x="649.53259"
       y="262.12747" />
    <rect
       style="fill:#ffffff;fill-opacity:1;fill-rule:evenodd;stroke:#000000;stroke-width:0.99921262;stroke-linecap:butt;stroke-linejoin:miter;stroke-miterlimit:4;stroke-opacity:1;stroke-dasharray:none"
       id="rect2996-1"
       width="170.44472"
       height="224.57243"
       x="649.53259"
       y="19.128597" />
    <rect
       style="fill:#ffffff;fill-opacity:1;fill-rule:evenodd;stroke:#000000;stroke-width:0.99921262;stroke-linecap:butt;stroke-linejoin:miter;stroke-miterlimit:4;stroke-opacity:1;stroke-dasharray:none"
       id="rect2996-6"
       width="170.44472"
       height="224.57243"
       x="833.79718"
       y="20.280251" />
    <rect
       style="fill:#ffffff;fill-opacity:1;fill-rule:evenodd;stroke:#000000;stroke-width:0.99921262;stroke-linecap:butt;stroke-linejoin:miter;stroke-miterlimit:4;stroke-opacity:1;stroke-dasharray:none"
       id="rect2996-42"
       width="170.44472"
       height="224.57243"
       x="837.25214"
       y="260.97583" />
    <rect
       style="fill:#ffffff;fill-opacity:1;fill-rule:evenodd;stroke:#000000;stroke-width:0.99921262;stroke-linecap:butt;stroke-linejoin:miter;stroke-miterlimit:4;stroke-opacity:1;stroke-dasharray:none"
       id="rect2996-80"
       width="170.44472"
       height="224.57243"
       x="839.55536"
       y="500.51978" />
    <flowRoot
       xml:space="preserve"
       id="flowRoot3881"
       style="font-size:40px;font-style:normal;font-weight:normal;line-height:125%;letter-spacing:0px;word-spacing:0px;fill:#000000;fill-opacity:1;stroke:none;font-family:Sans"
       transform="matrix(0.80524593,0,0,0.61324895,30.254633,50.487194)"><flowRegion
         id="flowRegion3883"><rect
           id="rect3885"
           width="119.77197"
           height="56.431023"
           x="86.374016"
           y="121.04993" /></flowRegion><flowPara
         id="flowPara3887">Login</flowPara></flowRoot>    <rect
       style="fill:#ffffff;fill-opacity:1;stroke:#000000;stroke-width:0.99921262;stroke-miterlimit:4;stroke-opacity:1;stroke-dasharray:none"
       id="rect3889"
       width="84.070709"
       height="35.70126"
       x="100.19386"
       y="87.651978" />
    <rect
       style="fill:#ffffff;fill-opacity:1;stroke:#000000;stroke-width:0.99921262;stroke-miterlimit:4;stroke-opacity:1;stroke-dasharray:none"
       id="rect3891"
       width="1.1516535"
       height="27.639685"
       x="110.55874"
       y="92.258591" />
    <flowRoot
       xml:space="preserve"
       id="flowRoot3895"
       style="font-size:28px;font-style:normal;font-weight:normal;line-height:125%;letter-spacing:0px;word-spacing:0px;fill:#000000;fill-opacity:1;stroke:none;font-family:Sans;text-anchor:middle;text-align:center"
       transform="translate(-4.606614,-26.488031)"><flowRegion
         id="flowRegion3897"><rect
           id="rect3899"
           width="147.41164"
           height="71.402519"
           x="290.21667"
           y="84.197021"
           style="font-size:28px;text-anchor:middle;text-align:center" /></flowRegion><flowPara
         id="flowPara3901">Browse</flowPara><flowPara
         id="flowPara3907">Questions</flowPara></flowRoot>    <rect
       style="fill:#ffffff;fill-opacity:0;stroke:#000000;stroke-width:0.99921262000000000;stroke-miterlimit:4;stroke-opacity:1;stroke-dasharray:none"
       id="rect3909"
       width="152.01826"
       height="70.250862"
       x="279.85181"
       y="61.163948" />
    <flowRoot
       xml:space="preserve"
       id="flowRoot3911"
       style="font-size:18px;font-style:normal;font-weight:normal;line-height:125%;letter-spacing:0px;word-spacing:0px;fill:#000000;fill-opacity:1;stroke:none;font-family:Sans"><flowRegion
         id="flowRegion3913"><rect
           id="rect3915"
           width="143.9567"
           height="63.340942"
           x="283.30676"
           y="169.41937"
           style="font-size:18px" /></flowRegion><flowPara
         id="flowPara3917" /></flowRoot>    <flowRoot
       xml:space="preserve"
       id="flowRoot3923"
       style="fill:black;stroke:none;stroke-opacity:1;stroke-width:1px;stroke-linejoin:miter;stroke-linecap:butt;fill-opacity:1;font-family:Sans;font-style:normal;font-weight:normal;font-size:18px;line-height:125%;letter-spacing:0px;word-spacing:0px"><flowRegion
         id="flowRegion3925"><rect
           id="rect3927"
           width="143.9567"
           height="73.705826"
           x="285.61008"
           y="148.68962"
           style="font-size:18px" /></flowRegion><flowPara
         id="flowPara3929" /></flowRoot>    <flowRoot
       xml:space="preserve"
       id="flowRoot3935"
       style="fill:black;stroke:none;stroke-opacity:1;stroke-width:1px;stroke-linejoin:miter;stroke-linecap:butt;fill-opacity:1;font-family:Sans;font-style:normal;font-weight:normal;font-size:40px;line-height:125%;letter-spacing:0px;word-spacing:0px"><flowRegion
         id="flowRegion3937"><rect
           id="rect3939"
           width="145.10834"
           height="73.705826"
           x="284.4584"
           y="142.93135" /></flowRegion><flowPara
         id="flowPara3941" /></flowRoot>    <text
       xml:space="preserve"
       style="font-size:28px;font-style:normal;font-weight:normal;text-align:center;line-height:125%;letter-spacing:0px;word-spacing:0px;text-anchor:middle;fill:#000000;fill-opacity:1;stroke:none;font-family:Sans"
       x="355.90723"
       y="170.57103"
       id="text3943"
       sodipodi:linespacing="125%"><tspan
         sodipodi:role="line"
         id="tspan3945"
         x="360.36426"
         y="170.57103">Ask </tspan><tspan
         sodipodi:role="line"
         x="355.90723"
         y="205.57103"
         id="tspan3947">Questions</tspan></text>
    <rect
       style="fill:#ffffff;fill-opacity:0;stroke:#000000;stroke-width:0.99921262;stroke-miterlimit:4;stroke-opacity:1;stroke-dasharray:none"
       id="rect3949"
       width="152.01826"
       height="67.947556"
       x="277.54849"
       y="146.38631" />
    <flowRoot
       xml:space="preserve"
       id="flowRoot3033"
       style="font-size:20px;font-style:normal;font-weight:normal;line-height:125%;letter-spacing:0px;word-spacing:0px;fill:#000000;fill-opacity:1;stroke:none;font-family:Sans"><flowRegion
         id="flowRegion3035"><rect
           id="rect3037"
           width="169.29306"
           height="225.72409"
           x="466.41968"
           y="18.552771"
           style="font-size:20px" /></flowRegion><flowPara
         id="flowPara3039" /></flowRoot>    <text
       xml:space="preserve"
       style="font-size:40px;font-style:normal;font-weight:normal;line-height:125%;letter-spacing:0px;word-spacing:0px;fill:#000000;fill-opacity:1;stroke:none;font-family:Sans"
       x="483.69446"
       y="27.765999"
       id="text3041"
       sodipodi:linespacing="125%"><tspan
         sodipodi:role="line"
         id="tspan3043"></tspan></text>
    <text
       xml:space="preserve"
       style="font-size:24.97566414px;font-style:normal;font-weight:normal;line-height:125%;letter-spacing:0px;word-spacing:0px;fill:#000000;fill-opacity:1;stroke:none;font-family:Sans"
       x="396.23807"
       y="87.645493"
       id="text3045"
       sodipodi:linespacing="125%"
       transform="scale(1.1858295,0.84329155)"><tspan
         sodipodi:role="line"
         id="tspan3047"
         x="396.23807"
         y="87.645493">Question 1</tspan><tspan
         sodipodi:role="line"
         x="396.23807"
         y="118.86507"
         id="tspan3049">Question 2</tspan><tspan
         sodipodi:role="line"
         x="396.23807"
         y="150.08466"
         id="tspan3051">Question 3</tspan><tspan
         sodipodi:role="line"
         x="396.23807"
         y="181.30423"
         id="tspan3053">Question 4</tspan><tspan
         sodipodi:role="line"
         x="396.23807"
         y="212.52382"
         id="tspan3055">Question 5</tspan><tspan
         sodipodi:role="line"
         x="396.23807"
         y="243.74339"
         id="tspan3057">Question 6</tspan><tspan
         sodipodi:role="line"
         x="396.23807"
         y="274.96298"
         id="tspan3059">Question 7</tspan></text>
    <rect
       style="fill:#ffffff;fill-opacity:0;stroke:#000000;stroke-width:1.01906669;stroke-miterlimit:4;stroke-opacity:1;stroke-dasharray:none"
       id="rect3069"
       width="170.09813"
       height="24.184723"
       x="467.17239"
       y="55.405682" />
    <rect
       style="fill:#ffffff;fill-opacity:0;stroke:#000000;stroke-width:1.01784849;stroke-miterlimit:4;stroke-opacity:1;stroke-dasharray:none"
       id="rect3069-8"
       width="169.69171"
       height="24.184723"
       x="466.41968"
       y="80.166229" />
    <rect
       style="fill:#ffffff;fill-opacity:0;stroke:#000000;stroke-width:1.02129567;stroke-miterlimit:4;stroke-opacity:1;stroke-dasharray:none"
       id="rect3069-2"
       width="170.84305"
       height="24.184723"
       x="466.41968"
       y="105.50262" />
    <rect
       style="fill:#ffffff;fill-opacity:0;stroke:#000000;stroke-width:1.01771092;stroke-miterlimit:4;stroke-opacity:1;stroke-dasharray:none"
       id="rect3069-0"
       width="169.64584"
       height="24.184723"
       x="466.41968"
       y="130.83899" />
    <rect
       style="fill:#ffffff;fill-opacity:0;stroke:#000000;stroke-width:1.12364256;stroke-miterlimit:4;stroke-opacity:1;stroke-dasharray:none"
       id="rect3069-9"
       width="170.94434"
       height="29.257494"
       x="466.41968"
       y="155.02371" />
    <rect
       style="fill:#ffffff;fill-opacity:0;stroke:#000000;stroke-width:1.05107605;stroke-miterlimit:4;stroke-opacity:1;stroke-dasharray:none"
       id="rect3069-29"
       width="170.31183"
       height="25.695606"
       x="466.48611"
       y="183.38937" />
    <rect
       style="fill:#ffffff;fill-opacity:0;stroke:#000000;stroke-width:1.18507361;stroke-miterlimit:4;stroke-opacity:1;stroke-dasharray:none"
       id="rect3069-3"
       width="170.78287"
       height="32.574806"
       x="465.34314"
       y="210.3782" />
    <flowRoot
       xml:space="preserve"
       id="flowRoot3124"
       style="font-size:40px;font-style:normal;font-weight:normal;line-height:125%;letter-spacing:0px;word-spacing:0px;fill:#000000;fill-opacity:1;stroke:none;font-family:Sans"><flowRegion
         id="flowRegion3126"><rect
           id="rect3128"
           width="132.44016"
           height="43.762833"
           x="482.54282"
           y="13.946156" /></flowRegion><flowPara
         id="flowPara3130">SortSs</flowPara></flowRoot>    <text
       xml:space="preserve"
       style="font-size:20.55199432px;font-style:normal;font-weight:normal;line-height:125%;letter-spacing:0px;word-spacing:0px;fill:#000000;fill-opacity:1;stroke:none;font-family:Sans"
       x="584.64539"
       y="39.57943"
       id="text3132"
       sodipodi:linespacing="125%"
       transform="scale(0.94586788,1.0572301)"><tspan
         sodipodi:role="line"
         id="tspan3134"
         x="584.64539"
         y="39.57943">Sort By</tspan></text>
    <rect
       style="fill:#ffffff;fill-opacity:0;stroke:#000000;stroke-width:0.99921262;stroke-miterlimit:4;stroke-opacity:1;stroke-dasharray:none"
       id="rect3136"
       width="79.464096"
       height="24.184723"
       x="549.33875"
       y="23.159384" />
    <flowRoot
       xml:space="preserve"
       id="flowRoot3140"
       style="font-size:40px;font-style:normal;font-weight:normal;line-height:125%;letter-spacing:0px;word-spacing:0px;fill:#000000;fill-opacity:1;stroke:none;font-family:Sans"><flowRegion
         id="flowRegion3142"><rect
           id="rect3144"
           width="82.919052"
           height="43.762833"
           x="103.64882"
           y="187.84584" /></flowRegion><flowPara
         id="flowPara3146">Si</flowPara></flowRoot>    <text
       xml:space="preserve"
       style="font-size:18px;font-style:normal;font-weight:normal;line-height:125%;letter-spacing:0px;word-spacing:0px;fill:#000000;fill-opacity:1;stroke:none;font-family:Sans"
       x="155.47322"
       y="233.91199"
       id="text3148"
       sodipodi:linespacing="125%"><tspan
         sodipodi:role="line"
         id="tspan3150"
         x="155.47322"
         y="233.91199">Sign Up</tspan></text>
    <rect
       style="fill:#ffffff;fill-opacity:0;stroke:#000000;stroke-width:0.99921262;stroke-miterlimit:4;stroke-opacity:1;stroke-dasharray:none"
       id="rect3152"
       width="74.857475"
       height="26.488031"
       x="152.01826"
       y="213.18222" />
    <flowRoot
       xml:space="preserve"
       id="flowRoot3154"
       style="font-size:16px;font-style:normal;font-weight:normal;line-height:125%;letter-spacing:0px;word-spacing:0px;fill:#000000;fill-opacity:1;stroke:none;font-family:Sans"
       transform="matrix(1.0563027,0,0,1.0415127,-23.752601,54.044255)"><flowRegion
         id="flowRegion3156"><rect
           id="rect3158"
           width="223.42078"
           height="77.160782"
           x="441.08328"
           y="-112.73573"
           style="font-size:16px" /></flowRegion><flowPara
         id="flowPara3160">Long click brings up info panel, things like upvotes #of responses. </flowPara><flowPara
         id="flowPara3162">tak</flowPara></flowRoot>    <flowRoot
       xml:space="preserve"
       id="flowRoot3164"
       style="font-size:40px;font-style:normal;font-weight:normal;line-height:125%;letter-spacing:0px;word-spacing:0px;fill:#000000;fill-opacity:1;stroke:none;font-family:Sans"
       transform="matrix(0.62925595,0,0,0.61122202,276.07545,10.985047)"><flowRegion
         id="flowRegion3166"><rect
           id="rect3168"
           width="277.54849"
           height="92.132278"
           x="654.13922"
           y="28.917652" /></flowRegion><flowPara
         id="flowPara3170">Emulator?</flowPara></flowRoot>    <rect
       style="fill:#ffffff;fill-opacity:0;stroke:#000000;stroke-width:0.68852037;stroke-miterlimit:4;stroke-opacity:1;stroke-dasharray:none"
       id="rect3172"
       width="161.23149"
       height="38.823792"
       x="654.13922"
       y="71.161255" />
    <flowRoot
       xml:space="preserve"
       id="flowRoot3182"
       style="fill:black;stroke:none;stroke-opacity:1;stroke-width:1px;stroke-linejoin:miter;stroke-linecap:butt;fill-opacity:1;font-family:Sans;font-style:normal;font-weight:normal;font-size:12px;line-height:125%;letter-spacing:0px;word-spacing:0px"><flowRegion
         id="flowRegion3184"><rect
           id="rect3186"
           width="142.80504"
           height="58.734329"
           x="664.50409"
           y="66.922218"
           style="font-size:12px" /></flowRegion><flowPara
         id="flowPara3188"></flowPara></flowRoot>    <text
       xml:space="preserve"
       style="font-size:14.79698753px;font-style:normal;font-weight:normal;line-height:125%;letter-spacing:0px;word-spacing:0px;fill:#000000;fill-opacity:1;stroke:none;font-family:Sans"
       x="665.34088"
       y="85.007164"
       id="text3190"
       sodipodi:linespacing="125%"
       transform="scale(0.98889616,1.0112285)"><tspan
         sodipodi:role="line"
         id="tspan3192"
         x="665.34088"
         y="85.007164">Why is my emulator </tspan><tspan
         sodipodi:role="line"
         x="665.34088"
         y="103.5034"
         id="tspan3194">so slow?</tspan></text>
    <flowRoot
       xml:space="preserve"
       id="flowRoot3196"
       style="fill:black;stroke:none;stroke-opacity:1;stroke-width:1px;stroke-linejoin:miter;stroke-linecap:butt;fill-opacity:1;font-family:Sans;font-style:normal;font-weight:normal;font-size:40px;line-height:125%;letter-spacing:0px;word-spacing:0px"><flowRegion
         id="flowRegion3198"><rect
           id="rect3200"
           width="32.2463"
           height="52.976063"
           x="656.4425"
           y="32.372612" /></flowRegion><flowPara
         id="flowPara3202"></flowPara></flowRoot>    <flowRoot
       xml:space="preserve"
       id="flowRoot3204"
       style="font-size:40px;font-style:normal;font-weight:normal;line-height:125%;letter-spacing:0px;word-spacing:0px;fill:#000000;fill-opacity:1;stroke:none;font-family:Sans"
       transform="matrix(0.37761749,0,0,0.64455331,396.66098,68.791343)"><flowRegion
         id="flowRegion3206"><rect
           id="rect3208"
           width="105.95213"
           height="110.55874"
           x="673.71729"
           y="-66.669586" /></flowRegion><flowPara
         id="flowPara3210">^14</flowPara></flowRoot>    <rect
       style="fill:#ffffff;fill-opacity:0;stroke:#000000;stroke-width:0.86592484;stroke-miterlimit:4;stroke-opacity:1;stroke-dasharray:none"
       id="rect3212"
       width="31.172909"
       height="31.633394"
       x="652.94843"
       y="29.569698" />
    <flowRoot
       xml:space="preserve"
       id="flowRoot3214"
       style="font-size:40px;font-style:normal;font-weight:normal;line-height:125%;letter-spacing:0px;word-spacing:0px;fill:#000000;fill-opacity:1;stroke:none;font-family:Sans"
       transform="matrix(0.4597313,0,0,0.34796792,360.12501,83.108385)"><flowRegion
         id="flowRegion3216"><rect
           id="rect3218"
           width="476.78455"
           height="230.3307"
           x="650.6842"
           y="126.8082" /></flowRegion><flowPara
         id="flowPara3220">use a different </flowPara><flowPara
         id="flowPara3222">processor </flowPara><flowPara
         id="flowPara3224"
         style="fill:#008000">-username</flowPara></flowRoot>    <flowRoot
       xml:space="preserve"
       id="flowRoot3214-1"
       style="font-size:40px;font-style:normal;font-weight:normal;line-height:125%;letter-spacing:0px;word-spacing:0px;fill:#000000;fill-opacity:1;stroke:none;font-family:Sans"
       transform="matrix(0.31226918,0,0,0.34796792,456.48419,136.06268)"><flowRegion
         id="flowRegion3216-2"><rect
           id="rect3218-1"
           width="476.78455"
           height="230.3307"
           x="650.6842"
           y="126.8082" /></flowRegion><flowPara
         id="flowPara3222-1">because your computer</flowPara><flowPara
         id="flowPara3261">sucks</flowPara><flowPara
         id="flowPara3224-2"
         style="fill:#008000">-username</flowPara></flowRoot>    <rect
       style="fill:#008000;fill-opacity:0;stroke:#000000;stroke-width:1.28710067;stroke-miterlimit:4;stroke-opacity:1;stroke-dasharray:none"
       id="rect3263"
       width="168.06499"
       height="52.324013"
       x="651.2757"
       y="130.26315" />
    <rect
       style="fill:#008000;fill-opacity:0;stroke:#000000;stroke-width:1.29618096;stroke-miterlimit:4;stroke-opacity:1;stroke-dasharray:none"
       id="rect3263-2"
       width="170.44472"
       height="52.324013"
       x="649.53253"
       y="183.56525" />
    <flowRoot
       xml:space="preserve"
       id="flowRoot3294"
       style="font-size:40px;font-style:normal;font-weight:normal;line-height:125%;letter-spacing:0px;word-spacing:0px;fill:#000000;fill-opacity:1;stroke:none;font-family:Sans"
       transform="matrix(0.25497687,0,0,0.28599806,555.21057,183.74638)"><flowRegion
         id="flowRegion3296"><rect
           id="rect3298"
           width="248.75716"
           height="54.127716"
           x="793.48926"
           y="-58.608017" /></flowRegion><flowPara
         id="flowPara3300">view replies</flowPara></flowRoot>    <flowRoot
       xml:space="preserve"
       id="flowRoot3294-8"
       style="font-size:40px;font-style:normal;font-weight:normal;line-height:125%;letter-spacing:0px;word-spacing:0px;fill:#000000;fill-opacity:1;stroke:none;font-family:Sans"
       transform="matrix(0.25497687,0,0,0.28599806,551.69332,233.20975)"><flowRegion
         id="flowRegion3296-3"><rect
           id="rect3298-1"
           width="248.75716"
           height="54.127716"
           x="793.48926"
           y="-58.608017" /></flowRegion><flowPara
         id="flowPara3300-0">view replies</flowPara></flowRoot>    <rect
       style="fill:#008000;fill-opacity:0;stroke:#000000;stroke-width:0.99921262;stroke-miterlimit:4;stroke-opacity:1;stroke-dasharray:none"
       id="rect3329"
       width="74.857475"
       height="25.336378"
       x="469.87463"
       y="23.159384" />
    <flowRoot
       xml:space="preserve"
       id="flowRoot3331"
       style="font-size:40px;font-style:normal;font-weight:normal;line-height:125%;letter-spacing:0px;word-spacing:0px;fill:#000000;fill-opacity:1;stroke:none;font-family:Sans"
       transform="matrix(0.49206145,0,0,0.55357986,620.24468,35.71805)"><flowRegion
         id="flowRegion3333"><rect
           id="rect3335"
           width="230.3307"
           height="56.431023"
           x="-299.4299"
           y="-27.513371" /></flowRegion><flowPara
         id="flowPara3337">Search</flowPara></flowRoot>    <flowRoot
       xml:space="preserve"
       id="flowRoot3339"
       style="font-size:40px;font-style:normal;font-weight:normal;line-height:125%;letter-spacing:0px;word-spacing:0px;fill:#000000;fill-opacity:1;stroke:none;font-family:Sans"
       transform="matrix(0.48447262,0,0,0.51637818,554.68211,-20.3782)"><flowRegion
         id="flowRegion3341"><rect
           id="rect3343"
           width="386.95557"
           height="120.92362"
           x="-380.04565"
           y="86.500328" /></flowRegion><flowPara
         id="flowPara3345">Profile</flowPara></flowRoot>    <rect
       style="fill:#008000;fill-opacity:0;stroke:#000000;stroke-width:0.99921262;stroke-miterlimit:4;stroke-opacity:1;stroke-dasharray:none"
       id="rect3347"
       width="65.644249"
       height="21.881416"
       x="367.37747"
       y="26.614344" />
    <flowRoot
       xml:space="preserve"
       id="flowRoot3349"
       style="font-size:40px;font-style:normal;font-weight:normal;line-height:125%;letter-spacing:0px;word-spacing:0px;fill:#000000;fill-opacity:1;stroke:none;font-family:Sans"
       transform="matrix(0.41925316,0,0,0.48162936,415.75501,200.60936)"><flowRegion
         id="flowRegion3351"><rect
           id="rect3353"
           width="369.68079"
           height="80.615746"
           x="-351.25433"
           y="148.68962" /></flowRegion><flowPara
         id="flowPara3355">Question Name</flowPara></flowRoot>    <flowRoot
       xml:space="preserve"
       id="flowRoot3349-2"
       style="font-size:40px;font-style:normal;font-weight:normal;line-height:125%;letter-spacing:0px;word-spacing:0px;fill:#000000;fill-opacity:1;stroke:none;font-family:Sans"
       transform="matrix(0.38824435,0,0,0.48162936,403.15701,253.97444)"><flowRegion
         id="flowRegion3351-8"><rect
           id="rect3353-0"
           width="432.85986"
           height="63.877609"
           x="-351.25433"
           y="148.68962" /></flowRegion><flowPara
         id="flowPara3355-6">Question description</flowPara></flowRoot>    <rect
       style="fill:#008000;fill-opacity:0;stroke:#000000;stroke-width:0.99921262;stroke-miterlimit:4;stroke-opacity:1;stroke-dasharray:none"
       id="rect3384"
       width="157.77655"
       height="31.094643"
       x="268.33527"
       y="296.10129" />
    <rect
       style="fill:#008000;fill-opacity:0;stroke:#000000;stroke-width:0.99921262;stroke-miterlimit:4;stroke-opacity:1;stroke-dasharray:none"
       id="rect3386"
       width="160.07983"
       height="93.283936"
       x="268.33527"
       y="350.22897" />
    <flowRoot
       xml:space="preserve"
       id="flowRoot3388"
       style="font-size:40px;font-style:normal;font-weight:normal;line-height:125%;letter-spacing:0px;word-spacing:0px;fill:#000000;fill-opacity:1;stroke:none;font-family:Sans"
       transform="matrix(0.59326217,0,0,0.58127098,467.79602,342.3676)"><flowRegion
         id="flowRegion3390"><rect
           id="rect3392"
           width="275.24518"
           height="69.099213"
           x="-330.52457"
           y="205.12064" /></flowRegion><flowPara
         id="flowPara3394">Save</flowPara></flowRoot>    <flowRoot
       xml:space="preserve"
       id="flowRoot3396"
       style="font-size:40px;font-style:normal;font-weight:normal;line-height:125%;letter-spacing:0px;word-spacing:0px;fill:#000000;fill-opacity:1;stroke:none;font-family:Sans"
       transform="matrix(0.57543447,0,0,0.59078154,533.674,276.75315)"><flowRegion
         id="flowRegion3398"><rect
           id="rect3400"
           width="274.09354"
           height="96.738892"
           x="-327.06961"
           y="312.22443" /></flowRegion><flowPara
         id="flowPara3402">Submit</flowPara></flowRoot>    <rect
       style="fill:#008000;fill-opacity:0;stroke:#000000;stroke-width:1.0397197;stroke-miterlimit:4;stroke-opacity:1;stroke-dasharray:none"
       id="rect3404"
       width="63.340942"
       height="26.185314"
       x="268.33527"
       y="462.71332" />
    <rect
       style="fill:#008000;fill-opacity:0;stroke:#000000;stroke-width:0.99921262;stroke-miterlimit:4;stroke-opacity:1;stroke-dasharray:none"
       id="rect3406"
       width="86.374016"
       height="27.639685"
       x="342.04111"
       y="461.93936" />
    <path
       style="fill:none;stroke:#000000;stroke-width:0.9992126;stroke-linecap:butt;stroke-linejoin:miter;stroke-opacity:1;stroke-miterlimit:4;stroke-dasharray:none;marker-mid:none;marker-end:url(#Arrow1Lstart)"
       d="m 236.08897,124.50489 c 5.75827,0 11.51654,0 17.2748,0 1.15166,0 2.30331,0 3.45496,0 0.38389,0 1.15166,-0.38388 1.15166,0 0,0.38389 -1.53554,0 -1.15166,0 0.76777,0 1.53554,0 2.30331,0 0.38388,0 0.88021,-0.27144 1.15165,0 0.27145,0.27145 -0.27144,0.88021 0,1.15166 0.27145,0.27144 0.76777,0 1.15166,0 0.42293,0 4.56027,0.0463 4.60661,0 0.27145,-0.27145 -0.27145,-0.88021 0,-1.15166 0.27145,-0.27144 1.15165,-0.38388 1.15165,0 0,0.38389 -0.76776,0 -1.15165,0"
       id="path3408"
       inkscape:connector-curvature="0" />
    <path
       style="fill:none;stroke:#000000;stroke-width:1px;stroke-linecap:butt;stroke-linejoin:miter;stroke-opacity:1;marker-end:url(#Arrow1Lstart)"
       d="m 196.93275,232.76032 c 3.43357,1.10887 -0.85839,4.04149 0,5.75827 0.24279,0.48558 0.90886,0.66607 1.15165,1.15165 0.17168,0.34336 -0.27144,0.88021 0,1.15166 0.27145,0.27145 0.88021,-0.27145 1.15166,0 0.27144,0.27145 0,0.76777 0,1.15165 0,0.8163 -0.14888,6.61216 0,6.90992 0.24279,0.48558 1.15165,0.60876 1.15165,1.15166 0,0.38388 -0.88021,-0.27145 -1.15165,0 -0.27145,0.27144 0,0.76776 0,1.15165 0,0.38388 0,0.76777 0,1.15165 0,1.15166 0,2.30331 0,3.45496 0,0.38389 0.38388,1.15166 0,1.15166 -0.38389,0 0,-1.53554 0,-1.15166 0,2.30331 0,4.60662 0,6.90992 0,0.38389 0.38388,1.15166 0,1.15166 -0.38389,0 0,-0.76777 0,-1.15166"
       id="path5354"
       inkscape:connector-curvature="0" />
    <flowRoot
       xml:space="preserve"
       id="flowRoot5540"
       style="font-size:40px;font-style:normal;font-weight:normal;line-height:125%;letter-spacing:0px;word-spacing:0px;fill:#000000;fill-opacity:1;stroke:none;font-family:Sans"
       transform="matrix(0.66342385,0,0,0.72880905,316.27929,150.84118)"><flowRegion
         id="flowRegion5542"><rect
           id="rect5544"
           width="319.00803"
           height="119.77197"
           x="-374.28738"
           y="159.0545" /></flowRegion><flowPara
         id="flowPara5546">Username</flowPara></flowRoot>    <flowRoot
       xml:space="preserve"
       id="flowRoot5548"
       style="font-size:40px;font-style:normal;font-weight:normal;line-height:125%;letter-spacing:0px;word-spacing:0px;fill:#000000;fill-opacity:1;stroke:none;font-family:Sans"
       transform="matrix(0.81058216,0,0,0.70238658,364.89158,124.03718)"><flowRegion
         id="flowRegion5550"><rect
           id="rect5552"
           width="339.73779"
           height="141.65338"
           x="-369.68079"
           y="326.04425" /></flowRegion><flowPara
         id="flowPara5554">Email</flowPara></flowRoot>    <rect
       style="fill:#008000;fill-opacity:0;stroke:#000000;stroke-width:0.99921262;stroke-miterlimit:4;stroke-opacity:1;stroke-dasharray:none"
       id="rect5556"
       width="153.16992"
       height="31.094645"
       x="70.250862"
       y="304.16284" />
    <rect
       style="fill:#008000;fill-opacity:0;stroke:#000000;stroke-width:0.99921262;stroke-miterlimit:4;stroke-opacity:1;stroke-dasharray:none"
       id="rect5558"
       width="155.47322"
       height="36.852913"
       x="67.947556"
       y="395.14346" />
    <rect
       style="fill:#008000;fill-opacity:0;stroke:#000000;stroke-width:0.99921262;stroke-miterlimit:4;stroke-opacity:1;stroke-dasharray:none"
       id="rect5560"
       width="152.01826"
       height="33.397953"
       x="70.250862"
       y="450.42285" />
    <flowRoot
       xml:space="preserve"
       id="flowRoot5562"
       style="font-size:40px;font-style:normal;font-weight:normal;line-height:125%;letter-spacing:0px;word-spacing:0px;fill:#000000;fill-opacity:1;stroke:none;font-family:Sans"
       transform="matrix(1,0,0,0.76199935,525.154,338.6098)"><flowRegion
         id="flowRegion5564"><rect
           id="rect5566"
           width="343.19275"
           height="153.16992"
           x="-449.14487"
           y="140.62804" /></flowRegion><flowPara
         id="flowPara5568">Signup</flowPara></flowRoot>    <path
       style="fill:none;stroke:#000000;stroke-width:1px;stroke-linecap:butt;stroke-linejoin:miter;stroke-opacity:1;marker-end:url(#Arrow1Lstart)"
       d="m 357.01259,209.72725 c 3.43357,1.10887 -0.85839,4.04149 0,5.75827 0.24279,0.48558 0.90886,0.66607 1.15165,1.15165 0.17168,0.34336 0,0.76777 0,1.15166 0,0.38388 0,0.76777 0,1.15165 0,1.91942 0,3.83885 0,5.75827 0,11.90042 0,23.80084 0,35.70126 0,5.25019 0,7.31489 0,10.36488 0,1.54217 0,0.76114 0,2.30331 0,0.38388 0.38389,1.15165 0,1.15165 -0.38388,0 0,-1.53554 0,-1.15165 0,6.52603 -0.76777,0.38388 1.15166,2.3033 0.10161,0.10162 0,4.44855 0,1.15166"
       id="path5570"
       inkscape:connector-curvature="0" />
    <path
       style="fill:none;stroke:#000000;stroke-width:1px;stroke-linecap:butt;stroke-linejoin:miter;stroke-opacity:1;marker-end:url(#Arrow1Lend)"
       d="m 423.80849,96.865209 c 5.37439,0 10.74877,0 16.12315,0 0.51866,0 3.10447,-0.175244 3.45496,0 0.48558,0.24279 0.66608,0.908863 1.15166,1.151653 0.34335,0.171679 0.76776,0 1.15165,0 0.38388,0 0.76777,0 1.15165,0 2.30331,0 4.60662,0 6.90992,0 3.07108,0 6.14216,0 9.21323,0 0.38389,0 0.76777,0 1.15166,0 0.38388,0 0.8802,-0.271447 1.15165,0 0.27145,0.271448 -0.27145,0.880206 0,1.151654 0.27145,0.271447 0.76777,0 1.15165,0 0.60223,0 4.3038,0.151409 4.60662,0 0.48558,-0.24279 0.66607,-0.908864 1.15165,-1.151654 0.35049,-0.175243 2.9363,0 3.45496,0"
       id="path5756"
       inkscape:connector-curvature="0" />
    <path
       style="fill:none;stroke:#000000;stroke-width:1px;stroke-linecap:butt;stroke-linejoin:miter;stroke-opacity:1;marker-end:url(#Arrow1Lstart)"
       d="m 627.65116,66.922217 c 4.22273,0 8.44546,0 12.66819,0 0.8163,0 6.61216,-0.14888 6.90992,0 0.48558,0.24279 0.66608,0.908864 1.15166,1.151654 0.29776,0.14888 6.09362,0 6.90992,0 0.38388,0 0.8083,-0.171678 1.15165,0 0.48558,0.24279 0.66608,0.908864 1.15166,1.151653 0.34335,0.171679 0.76776,0 1.15165,0 0.38388,0 0.76777,0 1.15165,0 0.543,0 5.70607,0.0522 5.75827,0 1.91942,-1.919422 -4.22273,-1.151653 2.30331,-1.151653 0.38388,0 0.76777,0 1.15165,0 0.38388,0 1.15165,-0.383885 1.15165,0 0,0.383884 -0.76777,0 -1.15165,0"
       id="path6310"
       inkscape:connector-curvature="0" />
    <path
       style="fill:none;stroke:#000000;stroke-width:1px;stroke-linecap:butt;stroke-linejoin:miter;stroke-opacity:1;marker-end:url(#Arrow1Lend)"
       d="m 393.8655,31.220959 c 0,-2.687192 0,-5.374383 0,-8.061575 0,-0.383885 0,-0.767769 0,-1.151654 0,-0.383884 -0.38388,-1.151653 0,-1.151653 0.38389,0 0,1.535538 0,1.151653 0,-0.767769 0,-1.535538 0,-2.303307 0,-0.383884 0,-0.767769 0,-1.151653 0,-0.383885 0.27145,-0.880206 0,-1.151654 -0.27145,-0.271447 -0.88021,0.271448 -1.15165,0 -0.27145,-0.271447 0,-0.767769 0,-1.151653 0,-0.383885 0,-0.767769 0,-1.151654 0,-0.383884 0,-1.535538 0,-1.151653 0,0.767769 0,3.071076 0,2.303307 0,-4 0,-2.606614 0,-4.606614 0,-1.135201 0,-3.4385085 0,-2.3033071 0,0.7677691 0.76777,2.3033071 0,2.3033071 -0.85839,0 -0.54468,-1.6963325 -1.15166,-2.3033071 -0.27144,-0.2714474 0.27145,0.8802061 0,1.1516531 -0.27144,0.271448 -0.76776,0 -1.15165,0 -2.30331,0 -4.60661,0 -6.90992,0 -2.70083,0 0.54289,0.271448 -2.30331,-1.1516531 -0.30282,-0.1514088 -4.00439,0 -4.60661,0 -3.45496,0 -6.90992,0 -10.36488,0 -11.51654,0 -23.03307,0 -34.54961,0 -0.51865,0 -3.10447,0.1752436 -3.45496,0 -0.48558,-0.2427899 -0.66607,-0.9088637 -1.15165,-1.1516536 -0.30282,-0.1514087 -4.00439,0 -4.60662,0 -3.45496,0 -6.90992,0 -10.36488,0 -2.70083,0 0.5429,-0.2714473 -2.30331,1.1516536 -0.41647,0.2082382 -4.95724,0 -5.75826,0 -0.38389,0 -0.88021,0.2714473 -1.15166,0 -0.27144,-0.2714474 0.27145,-0.8802062 0,-1.1516536 -0.27144,-0.2714473 -0.76777,0 -1.15165,0 -0.81629,0 -6.61216,0.1488804 -6.90992,0 -0.48558,-0.2427898 -0.66607,-0.9088636 -1.15165,-1.1516535 -0.12855,-0.064271 -5.62973,-0.064271 -5.75827,0 -0.48558,0.2427899 -0.66608,0.9088637 -1.15166,1.1516535 -0.35048,0.1752437 -2.9363,0 -3.45496,0 -2.3033,0 -4.60661,0 -6.90992,0 -0.38388,0 -0.76777,0 -1.15165,0 -0.38389,0 -0.88021,-0.2714473 -1.15165,0 -0.27145,0.2714474 0.27144,0.8802062 0,1.1516536 -0.27145,0.2714473 -0.76777,0 -1.15166,0 -2.3033,0 -4.60661,0 -6.90992,0 -15.73926,0 -31.47853,0 -47.21779,0 -15.35538,0 -30.71076,0 -46.06614,0 -4.22273,0 -8.44546,0 -12.66819,0 -0.84541,0 -6.50843,-0.2007479 -6.90992,0 -0.48558,0.2427898 -0.66608,0.9088631 -1.15166,1.1516531 -0.25812,0.129061 -4.33294,0 -4.60661,0 -2.68719,0 -5.37438,0 -8.06158,0 -6.52603,0 -13.05207,0 -19.5781,0 -3.07108,0 -6.14216,0 -9.21323,0 -0.38389,0 -0.76777,0 -1.15166,0 -0.38388,0 -0.8802,-0.271447 -1.15165,0 -0.27145,0.271448 0.27145,0.880207 0,1.151654 -0.0522,0.05219 -5.21527,0 -5.75827,0 -3.838842,0 -7.677688,0 -11.516533,0 -0.602223,0 -4.303796,0.151409 -4.606614,0 -0.485579,-0.24279 -0.666073,-0.908864 -1.151653,-1.151654 -0.302818,-0.151408 -4.004391,0 -4.606614,0 -3.454961,0 -6.909921,0 -10.364882,0 -0.602223,0 -4.303796,-0.151408 -4.606614,0 -0.48558,0.24279 -0.666074,0.908864 -1.151653,1.151654 -2.012569,1.006284 -0.430458,-1.151654 -2.303307,-1.151654 -0.542895,0 -0.666074,0.908864 -1.151654,1.151654 -0.343357,0.171678 -0.767769,0 -1.151653,0 -2.303307,0 -4.606614,0 -6.909921,0 -0.518656,0 -3.104474,-0.175244 -3.454961,0 -0.48558,0.24279 -0.666074,0.908864 -1.151654,1.151653 -0.343356,0.171679 -0.767769,0 -1.151653,0 -0.767769,0 -1.535538,0 -2.303307,0 -1.919423,0 -3.838845,0 -5.758268,0 -0.383884,0 -0.979975,-0.343356 -1.151653,0 -0.515035,1.030071 0,2.303307 0,3.454961 0,2.303307 0,4.606614 0,6.909921 0,0.383884 0,0.767769 0,1.151654 0,0.383884 0.171678,0.808296 0,1.151653 -0.24279,0.48558 -0.908864,0.666074 -1.151654,1.151654 -0.151408,0.302817 0,4.00439 0,4.606614 0,4.222729 0,8.445459 0,12.668188 0,3.454961 0,6.909921 0,10.364882 0,0.602223 0.151409,4.303796 0,4.606614 -0.242789,0.48558 -0.908863,0.666074 -1.151653,1.151653 -0.151409,0.302818 0,4.004391 0,4.606614 0,3.838845 0,7.677691 0,11.516536 0,4.990498 0,9.980997 0,14.971495 0,1.029258 -0.183501,5.391266 0,5.758268 0.24279,0.48558 0.979975,0.636618 1.151653,1.151653 0.24279,0.72837 0,1.535538 0,2.303308 0,0.76777 0,1.53554 0,2.30331 0,0.76777 0.186212,1.55846 0,2.3033 -1.49501,5.98004 -1.151653,-1.22944 -1.151653,4.60662 0,12.66819 0,25.33637 0,38.00456 0,3.07108 0,6.14216 0,9.21323 0,1.15165 0.364185,2.36241 0,3.45496 -0.37457,1.12371 -1.893077,0.82046 -1.151654,2.30331 0.24279,0.48558 0.908864,0.66607 1.151654,1.15165 0.175244,0.35049 0,2.93631 0,3.45496 0,2.68719 0,5.37439 0,8.06158 0,6.90992 0,13.81984 0,20.72976 0,2.30331 0,4.60661 0,6.90992 0,0.38389 -0.271447,0.88021 0,1.15166 0.271447,0.27144 0.880206,-0.27145 1.151653,0 0.04634,0.0463 0,4.18368 0,4.60661 0,7.2938 0,14.58761 0,21.88142 0,0.2793 0.03704,3.41792 0,3.45496 -0.271447,0.27144 -0.880206,-0.27145 -1.151653,0 -0.900278,0.90027 1.001737,2.00347 1.151653,2.3033 0.171679,0.34336 0,0.76777 0,1.15166 0,5.37438 0,10.74876 0,16.12315 0,0.61523 0.164804,5.42866 0,5.75826 -0.242789,0.48558 -0.908863,0.66608 -1.151653,1.15166 -0.171679,0.34335 0,0.76777 0,1.15165 0,0.38389 0,0.76777 0,1.15165 0,1.36035 0.22828,6.22509 0,6.90993 -0.171679,0.51503 -0.979975,0.63661 -1.151654,1.15165 -0.364184,1.09255 0,2.30331 0,3.45496 0,0.9885 0.224603,6.23611 0,6.90992 -0.171678,0.51504 -0.979975,0.63662 -1.151653,1.15165 -0.277798,0.8334 0.379629,4.22699 0,4.60662 -0.271447,0.27145 -0.880206,-0.27145 -1.151654,0 -0.271447,0.27145 0,0.76777 0,1.15165 0,0.8163 0.148881,6.61216 0,6.90992 -0.24279,0.48558 -0.979975,0.63662 -1.151653,1.15166 -0.364185,1.09255 0,2.3033 0,3.45496 0,2.68719 0,5.37438 0,8.06157 0,7.29381 0,14.58761 0,21.88142 0,8.06157 0,16.12315 0,24.18472 0,2.68719 0,5.37438 0,8.06158 0,0.38388 0,0.76777 0,1.15165 0,0.38388 0.171678,0.8083 0,1.15165 -0.24279,0.48558 -0.979975,0.63662 -1.151654,1.15166 -0.196506,0.58951 0,6.08659 0,6.90992 0,0.38388 0.171679,0.80829 0,1.15165 -0.24279,0.48558 -1.151653,0.60876 -1.151653,1.15166 0,0.54289 0.908863,0.66607 1.151653,1.15165 0.175244,0.35049 0,2.9363 0,3.45496 0,2.30331 0,4.60661 0,6.90992 0,5.24265 -0.542894,0.0659 1.151654,3.45496 0.171678,0.34336 0,0.76777 0,1.15165 0,0.38389 0,0.76777 0,1.15166 0,2.3033 0,4.60661 0,6.90992 0,0.76777 -0.24279,1.57494 0,2.30331 0.271447,0.81434 0.943463,1.47054 1.151653,2.3033 0.279317,1.11727 0,2.30331 0,3.45496 0,2.68719 0,5.37439 0,8.06158 0,1.32056 -0.298247,3.41362 0,4.60661 0.208191,0.83276 0.880207,1.48897 1.151654,2.30331 0.24279,0.72837 0,1.53554 0,2.30331 0,1.91942 0,3.83884 0,5.75826 0,0.38389 0,0.76777 0,1.15166 0,0.38388 -0.171679,0.80829 0,1.15165 0.24279,0.48558 0.908863,0.66607 1.151653,1.15165 0.171679,0.34336 0,0.76777 0,1.15166 0,0.76777 0,1.53554 0,2.3033 0,3.07108 0,6.14216 0,9.21323 0,0.76777 0,1.53554 0,2.30331 0,0.76777 -0.186211,1.55846 0,2.30331 0.208191,0.83276 0.880207,1.48896 1.151654,2.3033 0.121395,0.36419 0,0.76777 0,1.15166 0,1.91942 0,3.83884 0,5.75826 0,4.60662 0,9.21323 0,13.81985 0,1.91942 0,3.83884 0,5.75826 0,1.15166 -0.364185,2.36241 0,3.45497 0.171678,0.51503 0.979975,0.63661 1.151653,1.15165 0.194565,0.58369 0,7.12011 0,8.06157 0,4.60662 0,9.21323 0,13.81985 0,5.24265 -0.542894,0.0659 1.151654,3.45496 0.175072,0.35014 0,3.81137 0,4.60661 0,4.9905 0,9.981 0,14.9715 0,0.38388 0.171678,0.80829 0,1.15165 -0.149916,0.29983 -2.051931,1.40303 -1.151654,2.30331 0.575827,0.57582 2.879134,-0.57583 3.454961,0 0.271447,0.27144 -0.271447,0.8802 0,1.15165 0.575827,0.57583 2.879134,-0.57583 3.45496,0 0.271448,0.27145 -0.271447,0.88021 0,1.15165 0.271448,0.27145 0.767769,0 1.151654,0 0.801021,0 5.341791,0.20824 5.758268,0 0.485579,-0.24279 0.666073,-0.90886 1.151653,-1.15165 0.302817,-0.15141 4.004391,0 4.606614,0 0.383885,0 1.535538,0 1.151654,0 -0.767769,0 -3.071076,0 -2.303307,0 1.535538,0 3.071076,0 4.606614,0"
       id="path6866"
       inkscape:connector-curvature="0" />
    <flowRoot
       xml:space="preserve"
       id="flowRoot7420"
       style="font-size:40px;font-style:normal;font-weight:normal;line-height:125%;letter-spacing:0px;word-spacing:0px;fill:#000000;fill-opacity:1;stroke:none;font-family:Sans"
       transform="matrix(0.74466637,0,0,0.76755062,393.03163,378.84864)"><flowRegion
         id="flowRegion7422"><rect
           id="rect7424"
           width="445.68991"
           height="164.68645"
           x="-430.71841"
           y="162.50946" /></flowRegion><flowPara
         id="flowPara7426">Username</flowPara></flowRoot>    <flowRoot
       xml:space="preserve"
       id="flowRoot7428"
       style="font-size:40px;font-style:normal;font-weight:normal;line-height:125%;letter-spacing:0px;word-spacing:0px;fill:#000000;fill-opacity:1;stroke:none;font-family:Sans"
       transform="matrix(0.595656,0,0,0.70249919,290.86476,381.14584)"><flowRegion
         id="flowRegion7430"><rect
           id="rect7432"
           width="339.73779"
           height="114.01369"
           x="-375.43906"
           y="241.97356" /></flowRegion><flowPara
         id="flowPara7434">My Questions</flowPara></flowRoot>    <flowRoot
       xml:space="preserve"
       id="flowRoot7436"
       style="font-size:40px;font-style:normal;font-weight:normal;line-height:125%;letter-spacing:0px;word-spacing:0px;fill:#000000;fill-opacity:1;stroke:none;font-family:Sans"
       transform="matrix(0.57853439,0,0,0.87040734,278.2014,215.67212)"><flowRegion
         id="flowRegion7438"><rect
           id="rect7440"
           width="343.19275"
           height="122.07527"
           x="-368.52911"
           y="425.08646" /></flowRegion><flowPara
         id="flowPara7442">Edit Questions</flowPara></flowRoot>    <flowRoot
       xml:space="preserve"
       id="flowRoot7444"
       style="font-size:40px;font-style:normal;font-weight:normal;line-height:125%;letter-spacing:0px;word-spacing:0px;fill:#000000;fill-opacity:1;stroke:none;font-family:Sans"
       transform="matrix(0.74034778,0,0,0.80966863,363.57462,260.63029)"><flowRegion
         id="flowRegion7446"><rect
           id="rect7448"
           width="294.8233"
           height="95.587242"
           x="-345.49606"
           y="490.73071" /></flowRegion><flowPara
         id="flowPara7450">Stats</flowPara></flowRoot>    <rect
       style="fill:#008000;fill-opacity:0;stroke:#000000;stroke-width:0.99921262;stroke-miterlimit:4;stroke-opacity:1;stroke-dasharray:none"
       id="rect7452"
       width="169.29306"
       height="35.70126"
       x="64.492599"
       y="554.67828" />
    <rect
       style="fill:#008000;fill-opacity:0;stroke:#000000;stroke-width:1.00216925;stroke-miterlimit:4;stroke-opacity:1;stroke-dasharray:none"
       id="rect7452-1"
       width="170.2964"
       height="35.70126"
       x="64.728714"
       y="590.34875" />
    <rect
       style="fill:#008000;fill-opacity:0;stroke:#000000;stroke-width:0.99921262;stroke-miterlimit:4;stroke-opacity:1;stroke-dasharray:none"
       id="rect7452-8"
       width="169.29306"
       height="35.70126"
       x="65.613464"
       y="662.90289" />
    <flowRoot
       xml:space="preserve"
       id="flowRoot7479"
       style="font-size:40px;font-style:normal;font-weight:normal;line-height:125%;letter-spacing:0px;word-spacing:0px;fill:#000000;fill-opacity:1;stroke:none;font-family:Sans"
       transform="matrix(0.68947809,0,0,0.85119329,401.19632,410.09678)"><flowRegion
         id="flowRegion7481"><rect
           id="rect7483"
           width="373.13574"
           height="107.10378"
           x="-469.87463"
           y="252.33844" /></flowRegion><flowPara
         id="flowPara7485">Favourites</flowPara></flowRoot>    <rect
       style="fill:#008000;fill-opacity:0;stroke:#000000;stroke-width:0.99921262;stroke-miterlimit:4;stroke-opacity:1;stroke-dasharray:none"
       id="rect7452-8-8"
       width="169.29306"
       height="35.70126"
       x="65.732048"
       y="627.20166" />
  </g>
</svg>
